<svg width="1597" height="500" viewBox="0 0 1597 500" fill="none" xmlns="http://www.w3.org/2000/svg">
<g opacity="0.23" filter="url(#filter0_d_3_8)">
<mask id="path-1-outside-1_3_8" maskUnits="userSpaceOnUse" x="4" y="0" width="1589" height="492" fill="black">
<rect fill="white" x="4" width="1589" height="492"/>
<path d="M135.807 10.2727V483H7.46875V10.2727H135.807ZM451.458 158C450.227 142.612 444.457 130.609 434.147 121.991C423.99 113.374 408.525 109.065 387.751 109.065C374.517 109.065 363.668 110.681 355.205 113.913C346.895 116.99 340.74 121.222 336.739 126.608C332.738 131.994 330.661 138.149 330.507 145.074C330.199 150.768 331.199 155.923 333.507 160.539C335.97 165.002 339.817 169.08 345.049 172.773C350.281 176.312 356.975 179.544 365.13 182.467C373.286 185.391 382.981 188.007 394.214 190.315L432.993 198.625C459.153 204.165 481.542 211.474 500.162 220.553C518.782 229.632 534.016 240.327 545.865 252.638C557.714 264.795 566.409 278.49 571.949 293.724C577.642 308.959 580.566 325.578 580.72 343.582C580.566 374.667 572.795 400.981 557.407 422.524C542.018 444.068 520.013 460.456 491.391 471.69C462.923 482.923 428.684 488.54 388.674 488.54C347.588 488.54 311.733 482.461 281.11 470.305C250.642 458.148 226.944 439.451 210.017 414.214C193.243 388.824 184.78 356.355 184.626 316.807H306.501C307.27 331.272 310.887 343.428 317.35 353.277C323.813 363.125 332.892 370.589 344.587 375.667C356.436 380.745 370.516 383.284 386.828 383.284C400.523 383.284 411.988 381.591 421.221 378.206C430.453 374.821 437.455 370.127 442.226 364.126C446.996 358.124 449.458 351.277 449.612 343.582C449.458 336.35 447.073 330.041 442.456 324.655C437.994 319.115 430.607 314.191 420.297 309.882C409.987 305.419 396.061 301.265 378.518 297.418L331.43 287.261C289.574 278.182 256.566 263.025 232.407 241.789C208.401 220.399 196.475 191.239 196.629 154.307C196.475 124.3 204.477 98.0627 220.635 75.5959C236.946 52.9751 259.49 35.3556 288.266 22.7372C317.196 10.1188 350.358 3.80964 387.751 3.80964C425.914 3.80964 458.922 10.1958 486.775 22.968C514.627 35.7403 536.094 53.7446 551.174 76.9808C566.409 100.063 574.103 127.07 574.257 158H451.458ZM629.539 483V10.2727H757.877V194.932H927.763V10.2727H1056.1V483H927.763V298.341H757.877V483H629.539ZM1239.84 483H1101.34L1257.38 10.2727H1432.81L1588.84 483H1450.35L1346.94 140.457H1343.25L1239.84 483ZM1213.99 296.494H1474.35V392.517H1213.99V296.494Z"/>
</mask>
<path d="M135.807 10.2727H138.807V7.27272H135.807V10.2727ZM135.807 483V486H138.807V483H135.807ZM7.46875 483H4.46875V486H7.46875V483ZM7.46875 10.2727V7.27272H4.46875V10.2727H7.46875ZM135.807 10.2727H132.807V483H135.807H138.807V10.2727H135.807ZM135.807 483V480H7.46875V483V486H135.807V483ZM7.46875 483H10.4688V10.2727H7.46875H4.46875V483H7.46875ZM7.46875 10.2727V13.2727H135.807V10.2727V7.27272H7.46875V10.2727ZM451.458 158L448.468 158.239L448.689 161H451.458V158ZM434.147 121.991L432.206 124.279L432.214 124.286L432.223 124.293L434.147 121.991ZM355.205 113.913L356.247 116.726L356.261 116.721L356.275 116.715L355.205 113.913ZM336.739 126.608L334.331 124.819V124.819L336.739 126.608ZM330.507 145.074L333.502 145.236L333.505 145.188L333.506 145.141L330.507 145.074ZM333.507 160.539L330.824 161.881L330.851 161.935L330.881 161.988L333.507 160.539ZM345.049 172.773L343.319 175.224L343.343 175.241L343.368 175.258L345.049 172.773ZM394.214 190.315L394.843 187.382L394.83 187.379L394.818 187.377L394.214 190.315ZM432.993 198.625L432.364 201.558L432.371 201.56L432.993 198.625ZM500.162 220.553L498.847 223.25L500.162 220.553ZM545.865 252.638L543.704 254.718L543.711 254.725L543.717 254.732L545.865 252.638ZM571.949 293.724L569.129 294.75L569.134 294.762L569.138 294.775L571.949 293.724ZM580.72 343.582L583.72 343.597L583.72 343.577L583.72 343.557L580.72 343.582ZM557.407 422.524L559.848 424.268L557.407 422.524ZM491.391 471.69L490.295 468.897L490.29 468.899L491.391 471.69ZM281.11 470.305L279.999 473.091L280.004 473.093L281.11 470.305ZM210.017 414.214L207.514 415.868L207.519 415.877L207.525 415.886L210.017 414.214ZM184.626 316.807V313.807H181.614L181.626 316.818L184.626 316.807ZM306.501 316.807L309.497 316.647L309.346 313.807H306.501V316.807ZM317.35 353.277L314.842 354.923L317.35 353.277ZM344.587 375.667L343.392 378.419L343.399 378.422L343.405 378.424L344.587 375.667ZM421.221 378.206L422.253 381.023L421.221 378.206ZM442.226 364.126L444.574 365.992L442.226 364.126ZM449.612 343.582L452.611 343.642L452.613 343.58L452.611 343.519L449.612 343.582ZM442.456 324.655L440.12 326.537L440.149 326.572L440.179 326.607L442.456 324.655ZM420.297 309.882L419.106 312.635L419.123 312.643L419.14 312.65L420.297 309.882ZM378.518 297.418L379.161 294.487L379.151 294.485L378.518 297.418ZM331.43 287.261L330.794 290.193L330.798 290.194L331.43 287.261ZM232.407 241.789L230.411 244.029L230.418 244.036L230.426 244.042L232.407 241.789ZM196.629 154.307L199.629 154.319L199.629 154.305L199.629 154.291L196.629 154.307ZM220.635 75.5959L218.201 73.8412L218.199 73.8443L220.635 75.5959ZM288.266 22.7372L287.067 19.9874L287.061 19.9897L288.266 22.7372ZM486.775 22.968L485.524 25.695L486.775 22.968ZM551.174 76.9808L548.658 78.614L548.664 78.6237L548.671 78.6334L551.174 76.9808ZM574.257 158V161H577.272L577.257 157.985L574.257 158ZM451.458 158L454.449 157.761C453.164 141.7 447.092 128.902 436.071 119.69L434.147 121.991L432.223 124.293C441.822 132.316 447.291 143.524 448.468 158.239L451.458 158ZM434.147 121.991L436.088 119.704C425.158 110.43 408.858 106.065 387.751 106.065V109.065V112.065C408.192 112.065 422.823 116.318 432.206 124.279L434.147 121.991ZM387.751 109.065V106.065C374.305 106.065 363.059 107.703 354.135 111.11L355.205 113.913L356.275 116.715C364.278 113.66 374.729 112.065 387.751 112.065V109.065ZM355.205 113.913L354.163 111.099C345.48 114.315 338.773 118.839 334.331 124.819L336.739 126.608L339.147 128.397C342.707 123.605 348.311 119.665 356.247 116.726L355.205 113.913ZM336.739 126.608L334.331 124.819C329.947 130.721 327.675 137.482 327.507 145.007L330.507 145.074L333.506 145.141C333.647 138.816 335.53 133.267 339.147 128.397L336.739 126.608ZM330.507 145.074L327.511 144.912C327.178 151.07 328.259 156.751 330.824 161.881L333.507 160.539L336.191 159.197C334.139 155.094 333.22 150.465 333.502 145.236L330.507 145.074ZM333.507 160.539L330.881 161.988C333.611 166.937 337.808 171.334 343.319 175.224L345.049 172.773L346.779 170.322C341.825 166.825 338.328 163.066 336.134 159.09L333.507 160.539ZM345.049 172.773L343.368 175.258C348.868 178.979 355.807 182.312 364.118 185.291L365.13 182.467L366.143 179.643C358.142 176.775 351.693 173.646 346.73 170.288L345.049 172.773ZM365.13 182.467L364.118 185.291C372.442 188.275 382.28 190.926 393.61 193.254L394.214 190.315L394.818 187.377C383.682 185.088 374.131 182.507 366.143 179.643L365.13 182.467ZM394.214 190.315L393.586 193.249L432.364 201.558L432.993 198.625L433.621 195.692L394.843 187.382L394.214 190.315ZM432.993 198.625L432.371 201.56C458.357 207.063 480.501 214.304 498.847 223.25L500.162 220.553L501.477 217.857C482.584 208.644 459.949 201.267 433.614 195.69L432.993 198.625ZM500.162 220.553L498.847 223.25C517.216 232.206 532.145 242.708 543.704 254.718L545.865 252.638L548.027 250.557C535.888 237.946 520.348 227.058 501.477 217.857L500.162 220.553ZM545.865 252.638L543.717 254.732C555.283 266.599 563.742 279.934 569.129 294.75L571.949 293.724L574.768 292.699C569.076 277.046 560.145 262.99 548.014 250.544L545.865 252.638ZM571.949 293.724L569.138 294.775C574.697 309.648 577.569 325.916 577.72 343.608L580.72 343.582L583.72 343.557C583.563 325.24 580.587 308.27 574.759 292.674L571.949 293.724ZM580.72 343.582L577.72 343.568C577.568 374.143 569.934 399.825 554.965 420.78L557.407 422.524L559.848 424.268C575.656 402.136 583.563 375.191 583.72 343.597L580.72 343.582ZM557.407 422.524L554.965 420.78C539.966 441.779 518.466 457.841 490.295 468.897L491.391 471.69L492.487 474.482C521.56 463.072 544.07 446.356 559.848 424.268L557.407 422.524ZM491.391 471.69L490.29 468.899C462.262 479.959 428.417 485.54 388.674 485.54V488.54V491.54C428.951 491.54 463.584 485.887 492.492 474.48L491.391 471.69ZM388.674 488.54V485.54C347.876 485.54 312.413 479.503 282.217 467.516L281.11 470.305L280.004 473.093C311.054 485.419 347.299 491.54 388.674 491.54V488.54ZM281.11 470.305L282.222 467.518C252.268 455.567 229.071 437.237 212.508 412.543L210.017 414.214L207.525 415.886C224.816 441.665 249.015 460.729 279.999 473.091L281.11 470.305ZM210.017 414.214L212.52 412.561C196.152 387.784 187.778 355.932 187.626 316.795L184.626 316.807L181.626 316.818C181.782 356.778 190.335 389.864 207.514 415.868L210.017 414.214ZM184.626 316.807V319.807H306.501V316.807V313.807H184.626V316.807ZM306.501 316.807L303.505 316.966C304.296 331.84 308.027 344.539 314.842 354.923L317.35 353.277L319.858 351.631C313.746 342.318 310.245 330.703 309.497 316.647L306.501 316.807ZM317.35 353.277L314.842 354.923C321.652 365.301 331.207 373.128 343.392 378.419L344.587 375.667L345.782 372.915C334.577 368.05 325.974 360.95 319.858 351.631L317.35 353.277ZM344.587 375.667L343.405 378.424C355.713 383.699 370.214 386.284 386.828 386.284V383.284V380.284C370.819 380.284 357.159 377.791 345.769 372.909L344.587 375.667ZM386.828 383.284V386.284C400.748 386.284 412.588 384.567 422.253 381.023L421.221 378.206L420.188 375.389C411.388 378.616 400.299 380.284 386.828 380.284V383.284ZM421.221 378.206L422.253 381.023C431.86 377.5 439.376 372.531 444.574 365.992L442.226 364.126L439.877 362.259C435.534 367.723 429.047 372.141 420.188 375.389L421.221 378.206ZM442.226 364.126L444.574 365.992C449.755 359.474 452.444 351.991 452.611 343.642L449.612 343.582L446.612 343.522C446.472 350.562 444.237 356.774 439.877 362.259L442.226 364.126ZM449.612 343.582L452.611 343.519C452.443 335.607 449.812 328.627 444.734 322.702L442.456 324.655L440.179 326.607C444.334 331.455 446.473 337.093 446.613 343.646L449.612 343.582ZM442.456 324.655L444.793 322.773C439.887 316.684 431.987 311.516 421.454 307.114L420.297 309.882L419.14 312.65C429.228 316.866 436.1 321.547 440.12 326.537L442.456 324.655ZM420.297 309.882L421.489 307.129C410.929 302.558 396.794 298.354 379.161 294.487L378.518 297.418L377.875 300.348C395.327 304.175 409.045 308.281 419.106 312.635L420.297 309.882ZM378.518 297.418L379.151 294.485L332.063 284.329L331.43 287.261L330.798 290.194L377.886 300.35L378.518 297.418ZM331.43 287.261L332.066 284.33C290.549 275.324 258.057 260.341 234.387 239.536L232.407 241.789L230.426 244.042C255.075 265.708 288.599 281.041 330.794 290.193L331.43 287.261ZM232.407 241.789L234.402 239.549C211.137 218.82 199.478 190.533 199.629 154.319L196.629 154.307L193.629 154.294C193.472 191.945 205.664 221.979 230.411 244.029L232.407 241.789ZM196.629 154.307L199.629 154.291C199.478 124.862 207.314 99.2557 223.07 77.3475L220.635 75.5959L218.199 73.8443C201.64 96.8697 193.472 123.738 193.629 154.322L196.629 154.307ZM220.635 75.5959L223.068 77.3505C239.028 55.2176 261.122 37.9156 289.471 25.4846L288.266 22.7372L287.061 19.9897C257.858 32.7955 234.865 50.7327 218.201 73.8412L220.635 75.5959ZM288.266 22.7372L289.465 25.487C317.954 13.0612 350.695 6.80965 387.751 6.80965V3.80965V0.809647C350.02 0.809647 316.438 7.17641 287.067 19.9874L288.266 22.7372ZM387.751 3.80965V6.80965C425.585 6.80965 458.148 13.1411 485.524 25.695L486.775 22.968L488.025 20.2411C459.696 7.25041 426.243 0.809647 387.751 0.809647V3.80965ZM486.775 22.968L485.524 25.695C512.916 38.2561 533.919 55.9048 548.658 78.614L551.174 76.9808L553.691 75.3476C538.268 51.5842 516.338 33.2244 488.025 20.2411L486.775 22.968ZM551.174 76.9808L548.671 78.6334C563.547 101.173 571.105 127.596 571.257 158.015L574.257 158L577.257 157.985C577.1 126.544 569.271 98.9531 553.678 75.3283L551.174 76.9808ZM574.257 158V155H451.458V158V161H574.257V158ZM629.539 483H626.539V486H629.539V483ZM629.539 10.2727V7.27272H626.539V10.2727H629.539ZM757.877 10.2727H760.877V7.27272H757.877V10.2727ZM757.877 194.932H754.877V197.932H757.877V194.932ZM927.763 194.932V197.932H930.763V194.932H927.763ZM927.763 10.2727V7.27272H924.763V10.2727H927.763ZM1056.1 10.2727H1059.1V7.27272H1056.1V10.2727ZM1056.1 483V486H1059.1V483H1056.1ZM927.763 483H924.763V486H927.763V483ZM927.763 298.341H930.763V295.341H927.763V298.341ZM757.877 298.341V295.341H754.877V298.341H757.877ZM757.877 483V486H760.877V483H757.877ZM629.539 483H632.539V10.2727H629.539H626.539V483H629.539ZM629.539 10.2727V13.2727H757.877V10.2727V7.27272H629.539V10.2727ZM757.877 10.2727H754.877V194.932H757.877H760.877V10.2727H757.877ZM757.877 194.932V197.932H927.763V194.932V191.932H757.877V194.932ZM927.763 194.932H930.763V10.2727H927.763H924.763V194.932H927.763ZM927.763 10.2727V13.2727H1056.1V10.2727V7.27272H927.763V10.2727ZM1056.1 10.2727H1053.1V483H1056.1H1059.1V10.2727H1056.1ZM1056.1 483V480H927.763V483V486H1056.1V483ZM927.763 483H930.763V298.341H927.763H924.763V483H927.763ZM927.763 298.341V295.341H757.877V298.341V301.341H927.763V298.341ZM757.877 298.341H754.877V483H757.877H760.877V298.341H757.877ZM757.877 483V480H629.539V483V486H757.877V483ZM1239.84 483V486H1242.07L1242.71 483.867L1239.84 483ZM1101.34 483L1098.49 482.06L1097.19 486H1101.34V483ZM1257.38 10.2727V7.27272H1255.21L1254.53 9.33238L1257.38 10.2727ZM1432.81 10.2727L1435.65 9.33238L1434.98 7.27272H1432.81V10.2727ZM1588.84 483V486H1592.99L1591.69 482.06L1588.84 483ZM1450.35 483L1447.48 483.867L1448.12 486H1450.35V483ZM1346.94 140.457L1349.81 139.59L1349.17 137.457H1346.94V140.457ZM1343.25 140.457V137.457H1341.02L1340.37 139.59L1343.25 140.457ZM1213.99 296.494V293.494H1210.99V296.494H1213.99ZM1474.35 296.494H1477.35V293.494H1474.35V296.494ZM1474.35 392.517V395.517H1477.35V392.517H1474.35ZM1213.99 392.517H1210.99V395.517H1213.99V392.517ZM1239.84 483V480H1101.34V483V486H1239.84V483ZM1101.34 483L1104.19 483.94L1260.23 11.213L1257.38 10.2727L1254.53 9.33238L1098.49 482.06L1101.34 483ZM1257.38 10.2727V13.2727H1432.81V10.2727V7.27272H1257.38V10.2727ZM1432.81 10.2727L1429.96 11.213L1585.99 483.94L1588.84 483L1591.69 482.06L1435.65 9.33238L1432.81 10.2727ZM1588.84 483V480H1450.35V483V486H1588.84V483ZM1450.35 483L1453.22 482.133L1349.81 139.59L1346.94 140.457L1344.07 141.324L1447.48 483.867L1450.35 483ZM1346.94 140.457V137.457H1343.25V140.457V143.457H1346.94V140.457ZM1343.25 140.457L1340.37 139.59L1236.97 482.133L1239.84 483L1242.71 483.867L1346.12 141.324L1343.25 140.457ZM1213.99 296.494V299.494H1474.35V296.494V293.494H1213.99V296.494ZM1474.35 296.494H1471.35V392.517H1474.35H1477.35V296.494H1474.35ZM1474.35 392.517V389.517H1213.99V392.517V395.517H1474.35V392.517ZM1213.99 392.517H1216.99V296.494H1213.99H1210.99V392.517H1213.99Z" fill="url(#paint0_linear_3_8)" mask="url(#path-1-outside-1_3_8)"/>
</g>
<defs>
<filter id="filter0_d_3_8" x="0.46875" y="0.809647" width="1596.52" height="498.73" filterUnits="userSpaceOnUse" color-interpolation-filters="sRGB">
<feFlood flood-opacity="0" result="BackgroundImageFix"/>
<feColorMatrix in="SourceAlpha" type="matrix" values="0 0 0 0 0 0 0 0 0 0 0 0 0 0 0 0 0 0 127 0" result="hardAlpha"/>
<feOffset dy="4"/>
<feGaussianBlur stdDeviation="2"/>
<feComposite in2="hardAlpha" operator="out"/>
<feColorMatrix type="matrix" values="0 0 0 0 0 0 0 0 0 0 0 0 0 0 0 0 0 0 0.25 0"/>
<feBlend mode="normal" in2="BackgroundImageFix" result="effect1_dropShadow_3_8"/>
<feBlend mode="normal" in="SourceGraphic" in2="effect1_dropShadow_3_8" result="shape"/>
</filter>
<linearGradient id="paint0_linear_3_8" x1="318.486" y1="112.081" x2="1389.28" y2="246.305" gradientUnits="userSpaceOnUse">
<stop stop-color="#375044"/>
<stop offset="1" stop-color="#25462B"/>
</linearGradient>
</defs>
</svg>
